<?xml version="1.0" encoding="UTF-8" standalone="no"?>
<svg
   width="837.33331"
   height="740.29907"
   overflow="hidden"
   version="1.1"
   id="svg93"
   sodipodi:docname="Quá ít quá nhiều.svg"
   inkscape:export-filename="D:\Quả Cầu\General _ Quả Cầu\B Nội dung\Document\Quá ít quá nhiều.png"
   inkscape:export-xdpi="96"
   inkscape:export-ydpi="96"
   inkscape:version="1.1 (c68e22c387, 2021-05-23)"
   xmlns:inkscape="http://www.inkscape.org/namespaces/inkscape"
   xmlns:sodipodi="http://sodipodi.sourceforge.net/DTD/sodipodi-0.dtd"
   xmlns="http://www.w3.org/2000/svg"
   xmlns:svg="http://www.w3.org/2000/svg">
  <sodipodi:namedview
     id="namedview95"
     pagecolor="#ffffff"
     bordercolor="#666666"
     borderopacity="1.0"
     inkscape:pageshadow="2"
     inkscape:pageopacity="0.0"
     inkscape:pagecheckerboard="0"
     showgrid="false"
     fit-margin-top="30"
     lock-margins="false"
     fit-margin-left="30"
     fit-margin-right="30"
     fit-margin-bottom="30"
     inkscape:zoom="0.75835989"
     inkscape:cx="418.66666"
     inkscape:cy="380.42624"
     inkscape:window-width="1360"
     inkscape:window-height="705"
     inkscape:window-x="-8"
     inkscape:window-y="-8"
     inkscape:window-maximized="1"
     inkscape:current-layer="g91" />
  <defs
     id="defs5">
    <clipPath
       id="clip0">
      <rect
         x="0"
         y="0"
         width="1280"
         height="720"
         id="rect2" />
    </clipPath>
  </defs>
  <g
     clip-path="url(#clip0)"
     id="g91"
     transform="translate(-324.83333,-9.6836731)">
    <path
       d="m 751.5,162 c 0,-47.22 38.28,-85.4999 85.5,-85.4999 47.22,0 85.5,38.2799 85.5,85.4999 0,47.22 -38.28,85.5 -85.5,85.5 -47.22,0 -85.5,-38.28 -85.5,-85.5 z"
       stroke="#ffffff"
       stroke-width="1.33333"
       stroke-miterlimit="8"
       fill="#ed7d31"
       fill-rule="evenodd"
       fill-opacity="0.901961"
       id="path9" />
    <text
       fill="#ffffff"
       font-family="Calibri, Calibri_MSFontService, sans-serif"
       font-weight="400"
       font-size="36px"
       transform="translate(780.958,152)"
       id="text15"
       style="font-style:normal;font-variant:normal;font-weight:normal;font-stretch:normal;font-family:Calibri;-inkscape-font-specification:Calibri">Tiền<tspan
   font-size="36px"
   x="70.766701"
   y="0"
   id="tspan11"
   style="font-style:normal;font-variant:normal;font-weight:normal;font-stretch:normal;font-family:Calibri;-inkscape-font-specification:Calibri">dự</tspan><tspan
   font-size="36px"
   x="22.7134"
   y="39"
   id="tspan13"
   style="font-style:normal;font-variant:normal;font-weight:normal;font-stretch:normal;font-family:Calibri;-inkscape-font-specification:Calibri">định</tspan></text>
    <path
       d="m 931.678,209.006 18.522,13.457 6.81,-9.375 1.494,36.893 -35.548,9.98 6.811,-9.375 -18.522,-13.456 z"
       fill="#f4bfad"
       fill-rule="evenodd"
       id="path17" />
    <path
       d="m 960.5,313.5 c 0,-47.496 38.28,-86 85.5,-86 47.22,0 85.5,38.504 85.5,86 0,47.497 -38.28,86 -85.5,86 -47.22,0 -85.5,-38.503 -85.5,-86 z"
       stroke="#ffffff"
       stroke-width="1.33333"
       stroke-miterlimit="8"
       fill="#4472c4"
       fill-rule="evenodd"
       fill-opacity="0.8"
       id="path19" />
    <text
       fill="#ffffff"
       font-family="Calibri, Calibri_MSFontService, sans-serif"
       font-weight="400"
       font-size="36px"
       transform="translate(1023.5,304)"
       id="text23"
       style="font-style:normal;font-variant:normal;font-weight:normal;font-stretch:normal;font-family:Calibri;-inkscape-font-specification:Calibri">Dự<tspan
   font-size="36px"
   x="-11.0533"
   y="39"
   id="tspan21"
   style="font-style:normal;font-variant:normal;font-weight:normal;font-stretch:normal;font-family:Calibri;-inkscape-font-specification:Calibri">định</tspan></text>
    <path
       d="m 1029.55,418.207 -7.07,21.773 11.02,3.581 -34.628,12.821 -20.476,-30.725 11.02,3.581 7.074,-21.773 z"
       fill="#6182c5"
       fill-rule="evenodd"
       id="path25" />
    <path
       d="m 880.5,559 c 0,-47.22 38.504,-85.5 86,-85.5 47.5,0 86,38.28 86,85.5 0,47.22 -38.5,85.5 -86,85.5 -47.496,0 -86,-38.28 -86,-85.5 z"
       stroke="#ffffff"
       stroke-width="1.33333"
       stroke-miterlimit="8"
       fill="#4472c4"
       fill-rule="evenodd"
       fill-opacity="0.701961"
       id="path27" />
    <text
       fill="#ffffff"
       font-family="Calibri, Calibri_MSFontService, sans-serif"
       font-weight="400"
       font-size="36px"
       transform="translate(919.084,549)"
       id="text31"
       style="font-style:normal;font-variant:normal;font-weight:normal;font-stretch:normal;font-family:Calibri;-inkscape-font-specification:Calibri">Chuẩn<tspan
   font-size="36px"
   x="33.006699"
   y="39"
   id="tspan29"
   style="font-style:normal;font-variant:normal;font-weight:normal;font-stretch:normal;font-family:Calibri;-inkscape-font-specification:Calibri">bị</tspan></text>
    <path
       d="M 861,576.4 H 838 V 588 l -23,-29 23,-29 v 11.6 h 23 z"
       fill="#8199ce"
       fill-rule="evenodd"
       id="path33" />
    <path
       d="m 622.5,559 c 0,-47.22 38.28,-85.5 85.5,-85.5 47.22,0 85.5,38.28 85.5,85.5 0,47.22 -38.28,85.5 -85.5,85.5 -47.22,0 -85.5,-38.28 -85.5,-85.5 z"
       stroke="#ffffff"
       stroke-width="1.33333"
       stroke-miterlimit="8"
       fill="#4472c4"
       fill-rule="evenodd"
       fill-opacity="0.6"
       id="path35" />
    <text
       fill="#ffffff"
       font-family="Calibri, Calibri_MSFontService, sans-serif"
       font-weight="400"
       font-size="36px"
       transform="translate(668.866,549)"
       id="text39"
       style="font-style:normal;font-variant:normal;font-weight:normal;font-stretch:normal;font-family:Calibri;-inkscape-font-specification:Calibri">Hành<tspan
   font-size="36px"
   x="1.40002"
   y="39"
   id="tspan37"
   style="font-style:normal;font-variant:normal;font-weight:normal;font-stretch:normal;font-family:Calibri;-inkscape-font-specification:Calibri">động</tspan></text>
    <path
       d="m 658.688,464.218 -7.074,-21.773 -11.02,3.58 20.476,-30.725 34.625,12.822 -11.02,3.581 7.074,21.773 z"
       fill="#a1b0d9"
       fill-rule="evenodd"
       id="path41" />
    <path
       d="m 542.5,313.5 c 0,-47.496 38.504,-86 86,-86 47.497,0 86,38.504 86,86 0,47.497 -38.503,86 -86,86 -47.496,0 -86,-38.503 -86,-86 z"
       stroke="#ffffff"
       stroke-width="1.33333"
       stroke-miterlimit="8"
       fill="#4472c4"
       fill-rule="evenodd"
       fill-opacity="0.501961"
       id="path43" />
    <text
       fill="#ffffff"
       font-family="Calibri, Calibri_MSFontService, sans-serif"
       font-weight="400"
       font-size="36px"
       transform="translate(606.345,304)"
       id="text49"
       style="font-style:normal;font-variant:normal;font-weight:normal;font-stretch:normal;font-family:Calibri;-inkscape-font-specification:Calibri">Tái<tspan
   font-size="36px"
   x="43.0466"
   y="0"
   id="tspan45"
   style="font-style:normal;font-variant:normal;font-weight:normal;font-stretch:normal;font-family:Calibri;-inkscape-font-specification:Calibri" /><tspan
   font-size="36px"
   x="-10.4733"
   y="39"
   id="tspan47"
   style="font-style:normal;font-variant:normal;font-weight:normal;font-stretch:normal;font-family:Calibri;-inkscape-font-specification:Calibri">diễn</tspan></text>
    <path
       d="m 702.472,237.443 18.522,-13.457 -6.811,-9.374 35.548,9.979 -1.494,36.893 -6.811,-9.375 -18.521,13.457 z"
       fill="#c0c9e4"
       fill-rule="evenodd"
       id="path51" />
    <path
       d="M 594,576.4 H 571 V 588 l -23,-29 23,-29 v 11.6 h 23 z"
       fill="#f4bfad"
       fill-rule="evenodd"
       id="path53" />
    <path
       d="m 355.5,559 c 0,-47.22 38.28,-85.5 85.5,-85.5 47.22,0 85.5,38.28 85.5,85.5 0,47.22 -38.28,85.5 -85.5,85.5 -47.22,0 -85.5,-38.28 -85.5,-85.5 z"
       stroke="#ffffff"
       stroke-width="1.33333"
       stroke-miterlimit="8"
       fill="#ed7d31"
       fill-rule="evenodd"
       id="path55" />
    <text
       fill="#ffffff"
       font-family="Calibri, Calibri_MSFontService, sans-serif"
       font-weight="400"
       font-size="36px"
       transform="translate(406.033,549)"
       id="text59"
       style="font-style:normal;font-variant:normal;font-weight:normal;font-stretch:normal;font-family:Calibri;-inkscape-font-specification:Calibri">Thay<tspan
   font-size="36px"
   x="11"
   y="40"
   id="tspan57"
   style="font-style:normal;font-variant:normal;font-weight:normal;font-stretch:normal;font-family:Calibri;-inkscape-font-specification:Calibri">đổi</tspan></text>
    <path
       d="m 917.5,42.5001 c 17.926,-4.9398 31.266,5.809 50.05,0 18.784,-5.8091 40.02,1.3041 53.35,0 13.33,-1.3042 36.81,6.8801 61.6,0 2.83,13.7114 -3.14,22.126 0,33.5 3.14,11.374 -0.06,20.5622 0,33.4999 -13.04,6.125 -39.63,-4.856 -53.35,0 -13.72,4.856 -28.48,-3.632 -51.7,0 -23.221,3.632 -30.917,-2.45 -59.95,0 -0.992,-12.7252 1.426,-25.2146 0,-34.17 -1.426,-8.9553 2.183,-25.3107 0,-32.8299 z"
       stroke="#ed7d31"
       stroke-linejoin="round"
       stroke-miterlimit="10"
       fill="none"
       fill-rule="evenodd"
       id="path61" />
    <text
       fill="#ed7d31"
       font-family="Calibri, Calibri_MSFontService, sans-serif"
       font-weight="400"
       font-size="24px"
       transform="translate(939.783,68)"
       id="text75"
       style="font-style:normal;font-variant:normal;font-weight:normal;font-stretch:normal;font-family:Calibri;-inkscape-font-specification:Calibri">Có<tspan
   font-size="24px"
   x="31"
   y="0"
   id="tspan63"
   style="font-style:normal;font-variant:normal;font-weight:normal;font-stretch:normal;font-family:Calibri;-inkscape-font-specification:Calibri">quá</tspan><tspan
   font-size="24px"
   x="73.333298"
   y="0"
   id="tspan65"
   style="font-style:normal;font-variant:normal;font-weight:normal;font-stretch:normal;font-family:Calibri;-inkscape-font-specification:Calibri">ít</tspan><tspan
   font-size="24px"
   x="92.333397"
   y="0"
   id="tspan67"
   style="font-style:normal;font-variant:normal;font-weight:normal;font-stretch:normal;font-family:Calibri;-inkscape-font-specification:Calibri">dự</tspan><tspan
   font-size="24px"
   x="2.5599999"
   y="29"
   id="tspan69"
   style="font-style:normal;font-variant:normal;font-weight:normal;font-stretch:normal;font-family:Calibri;-inkscape-font-specification:Calibri">án</tspan><tspan
   font-size="24px"
   x="32.226601"
   y="29"
   id="tspan71"
   style="font-style:normal;font-variant:normal;font-weight:normal;font-stretch:normal;font-family:Calibri;-inkscape-font-specification:Calibri">tác</tspan><tspan
   font-size="24px"
   x="67.099998"
   y="29"
   id="tspan73"
   style="font-style:normal;font-variant:normal;font-weight:normal;font-stretch:normal;font-family:Calibri;-inkscape-font-specification:Calibri">động</tspan></text>
    <path
       d="m 748.5,650.5 c 12.633,-4.439 28.018,2.047 55.46,0 27.442,-2.047 34.803,4.281 60.77,0 25.967,-4.281 40.478,0.591 60.77,0 1.324,10.59 -3.521,19.457 0,32.83 3.522,13.373 -2.476,23.882 0,34.17 -13.376,5.171 -29.713,-1.604 -53.69,0 -23.977,1.604 -46.129,-3.404 -62.54,0 -16.411,3.404 -43.327,-4.178 -60.77,0 -0.349,-14.302 3.025,-17.171 0,-32.83 -3.025,-15.659 3.62,-24.987 0,-34.17 z"
       stroke="#4472c4"
       stroke-linejoin="round"
       stroke-miterlimit="10"
       fill="none"
       fill-rule="evenodd"
       id="path77" />
    <text
       fill="#4472c4"
       font-family="Calibri, Calibri_MSFontService, sans-serif"
       font-weight="400"
       font-size="24px"
       transform="translate(763.30542,676.11512)"
       id="text89"
       style="font-style:normal;font-variant:normal;font-weight:normal;font-stretch:normal;font-family:Calibri;-inkscape-font-specification:Calibri;text-align:center;text-anchor:middle;white-space:pre;inline-size:163.005"
       x="73.699219"
       y="0"
       xml:space="preserve"><tspan
         x="73.699219"
         y="0"
         id="tspan7876">Đã có nhiều dự<tspan
   y="0"
   id="tspan7878"> </tspan></tspan><tspan
         x="73.699219"
         y="30"
         id="tspan7880">án tác động</tspan></text>
  </g>
</svg>
