<?xml version="1.0" encoding="UTF-8" standalone="no"?>
<svg
   width="361.11154mm"
   height="305.40933mm"
   viewBox="0 0 361.11154 305.40933"
   version="1.1"
   id="svg999"
   inkscape:version="1.1.1 (3bf5ae0d25, 2021-09-20)"
   sodipodi:docname="Venn diagram.svg"
   inkscape:export-filename="D:\Quả Cầu\B3 Thiết kế\Illustration\Venn diagram.png"
   inkscape:export-xdpi="99.18"
   inkscape:export-ydpi="99.18"
   xmlns:inkscape="http://www.inkscape.org/namespaces/inkscape"
   xmlns:sodipodi="http://sodipodi.sourceforge.net/DTD/sodipodi-0.dtd"
   xmlns="http://www.w3.org/2000/svg"
   xmlns:svg="http://www.w3.org/2000/svg"
   xmlns:rdf="http://www.w3.org/1999/02/22-rdf-syntax-ns#"
   xmlns:cc="http://creativecommons.org/ns#"
   xmlns:dc="http://purl.org/dc/elements/1.1/">
  <defs
     id="defs993">
    <rect
       x="152.40852"
       y="226.37273"
       width="43.845238"
       height="12.85119"
       id="rect1670" />
    <rect
       x="152.40852"
       y="226.37273"
       width="43.845238"
       height="12.85119"
       id="rect16679" />
    <rect
       x="152.40852"
       y="226.37273"
       width="43.845238"
       height="12.85119"
       id="rect17683" />
  </defs>
  <sodipodi:namedview
     id="base"
     pagecolor="#ffffff"
     bordercolor="#666666"
     borderopacity="1.0"
     inkscape:pageopacity="1"
     inkscape:pageshadow="2"
     inkscape:zoom="0.4097711"
     inkscape:cx="682.08813"
     inkscape:cy="577.15149"
     inkscape:document-units="mm"
     inkscape:current-layer="layer2"
     inkscape:document-rotation="0"
     showgrid="false"
     inkscape:window-width="1360"
     inkscape:window-height="697"
     inkscape:window-x="-8"
     inkscape:window-y="-8"
     inkscape:window-maximized="1"
     fit-margin-top="20"
     lock-margins="true"
     fit-margin-left="20"
     fit-margin-right="20"
     fit-margin-bottom="20"
     inkscape:pagecheckerboard="0"
     inkscape:snap-page="true" />
  <metadata
     id="metadata996">
    <rdf:RDF>
      <cc:Work
         rdf:about="">
        <dc:format>image/svg+xml</dc:format>
        <dc:type
           rdf:resource="http://purl.org/dc/dcmitype/StillImage" />
      </cc:Work>
    </rdf:RDF>
  </metadata>
  <rect
     style="fill:#ffffff;fill-rule:evenodd;stroke:none;stroke-width:1.50283"
     id="rect23604"
     width="361.11154"
     height="305.40933"
     x="1.4210855e-14"
     y="0"
     inkscape:label="Background" />
  <g
     inkscape:label="Layer 1"
     inkscape:groupmode="layer"
     id="layer1"
     transform="translate(-79.491853,-130.77749)">
    <circle
       inkscape:export-ydpi="99.18"
       inkscape:export-xdpi="99.18"
       inkscape:export-filename="D:\OneDrive\Quảcầu.com\Pictures\Illustration\Venn.png"
       style="opacity:0.509804;fill:#5f5fd3;stroke:#000000;stroke-width:0.94819;stroke-linecap:round;stroke-linejoin:bevel"
       id="path936"
       cx="216.1799"
       cy="239.27859"
       r="88.027008" />
    <path
       inkscape:export-ydpi="99.18"
       inkscape:export-xdpi="99.18"
       inkscape:export-filename="D:\OneDrive\Quảcầu.com\Pictures\Illustration\Venn.png"
       id="circle940"
       style="opacity:0.509804;fill:#5fd3bc;stroke:#000000;stroke-width:0.94819;stroke-linecap:round;stroke-linejoin:bevel"
       d="m 392.01899,239.2786 a 88.027007,88.027007 0 0 1 -88.027,88.02699 88.027007,88.027007 0 0 1 -88.02701,-88.02699 88.027007,88.027007 0 0 1 88.02701,-88.02702 88.027007,88.027007 0 0 1 88.027,88.02702" />
    <path
       inkscape:export-filename="D:\OneDrive\Quảcầu.com\Pictures\Illustration\Venn.png"
       style="fill:#000000;stroke-width:0.476985"
       d="m 369.18474,409.16032 c -0.68809,-1.86208 -4.03286,-15.9647 -4.55094,-19.18813 -0.33637,-2.09297 -0.67517,-3.59547 -0.75288,-3.33888 -0.0777,0.25657 -0.56061,3.25686 -1.07313,6.6673 -1.67314,11.13354 -2.63765,15.99135 -3.13974,15.81397 -0.26849,-0.0948 -0.44646,-0.47217 -0.39545,-0.83846 0.0511,-0.3663 0.9816,-6.03207 2.06797,-12.59059 1.08636,-6.55853 2.06174,-13.85639 2.16749,-16.21746 l 0.19219,-4.29285 -1.85716,5.40021 c -1.02141,2.97012 -1.98487,5.52795 -2.14098,5.68406 -0.92691,0.92691 -0.58839,-0.92695 1.11034,-6.08106 1.0579,-3.20964 2.04804,-6.50697 2.20036,-7.32739 0.27284,-1.46962 0.24731,-1.49282 -1.72514,-1.56733 -4.58438,-0.17318 -7.9132,-5.58368 -6.52615,-10.60724 0.32728,-1.18523 0.30877,-1.73709 -0.0624,-1.86082 -0.29022,-0.0967 -0.52766,-0.78731 -0.52766,-1.5346 0,-2.12269 2.14391,-3.41179 5.01877,-3.01774 1.81703,0.24905 2.34055,0.15596 2.69612,-0.47939 0.53714,-0.95984 1.76083,-1.0332 2.10876,-0.12643 0.13964,0.36413 1.20432,0.92809 2.36571,1.25326 2.79994,0.78394 4.50508,2.51934 4.50508,4.585 0,1.08378 -0.30793,1.79266 -0.95397,2.19612 -0.60529,0.37802 -0.9578,1.12041 -0.96445,2.03123 -0.015,2.0512 -1.60349,5.27523 -3.07389,6.23867 -0.84919,0.5564 -1.15339,1.07087 -0.93853,1.58738 0.56157,1.35017 3.54591,13.13137 3.54591,13.99817 0,0.46036 -0.18446,0.83702 -0.40986,0.83702 -0.22548,0 -0.9932,-2.46839 -1.70604,-5.48531 -0.71288,-3.01692 -1.41598,-5.48532 -1.56244,-5.48532 -0.1465,0 -0.15315,2.62937 -0.015,5.84305 0.25462,5.91251 1.66095,13.65368 3.90446,21.49213 1.62501,5.67756 1.86083,7.00766 1.24243,7.00766 -0.29141,0 -0.62899,-0.2683 -0.75018,-0.59622 z m -3.50949,-40.84526 c 1.73704,-1.737 1.85184,-2.02814 1.85184,-4.69591 0,-2.1133 -0.2145,-3.03118 -0.83474,-3.57221 -1.82213,-1.5894 -2.94303,-1.84789 -6.58287,-1.51806 -4.14539,0.37565 -4.69701,0.91162 -4.6489,4.5171 0.0553,4.15987 2.76159,7.11549 6.51805,7.11911 1.50819,0.002 2.1827,-0.33609 3.69662,-1.85003 z m 4.20832,-7.89208 c 0.92866,-1.119 -0.5542,-3.35949 -2.8248,-4.268 -2.61557,-1.04654 -10.59908,-1.09199 -11.45123,-0.0652 -0.32385,0.39017 -0.47994,0.99298 -0.34693,1.33957 0.19111,0.49821 1.10646,0.54718 4.37076,0.23385 4.58341,-0.43996 6.72349,0.15476 8.2826,2.30172 0.94881,1.30653 1.21418,1.36825 1.9696,0.45805 z"
       id="path1319"
       inkscape:connector-curvature="0"
       inkscape:export-xdpi="99.18"
       inkscape:export-ydpi="99.18" />
    <path
       inkscape:export-ydpi="99.18"
       inkscape:export-xdpi="99.18"
       inkscape:export-filename="D:\OneDrive\Quảcầu.com\Pictures\Illustration\Venn.png"
       d="m 348.11302,327.68471 c 0,3.31 -0.186,6.6 -0.553,9.857 -0.37,3.283 -0.923,6.532 -1.654,9.733 -0.734,3.215 -1.647,6.381 -2.733,9.485 -1.088,3.108 -2.349,6.153 -3.778,9.12 -1.426,2.962 -3.02,5.847 -4.774,8.639 -1.747,2.78 -3.653,5.468 -5.712,8.05 -2.044,2.563 -4.239,5.021 -6.579,7.361 -2.34,2.34 -4.798,4.535 -7.36,6.578 -2.583,2.06 -5.272,3.966 -8.052,5.713 -2.792,1.755 -5.677,3.348 -8.64,4.775 -2.966,1.428 -6.011,2.689 -9.119,3.777 -3.104,1.086 -6.27,1.999 -9.485,2.733 -3.201,0.73 -6.449,1.284 -9.732,1.653 -3.257,0.367 -6.547,0.554 -9.856,0.554 -3.332,0 -6.621,-0.186 -9.857,-0.546 -3.304,-0.368 -6.552,-0.919 -9.735,-1.643 -3.234,-0.735 -6.401,-1.648 -9.488,-2.728 -3.125,-1.093 -6.169,-2.358 -9.121,-3.782 -2.976,-1.436 -5.859,-3.034 -8.637,-4.783 -2.792,-1.758 -5.478,-3.669 -8.047,-5.72 -2.575,-2.056 -5.032,-4.253 -7.359,-6.581 -2.327,-2.327 -4.525,-4.784 -6.581,-7.358 -2.051,-2.569 -3.962,-5.255 -5.72,-8.047 -1.749,-2.778 -3.347,-5.661 -4.783,-8.637 -1.424,-2.952 -2.689,-5.996 -3.782,-9.12 -1.08,-3.088 -1.993,-6.255 -2.728,-9.489 -0.724,-3.183 -1.275,-6.431 -1.643,-9.735 -0.361,-3.236 -0.546,-6.526 -0.546,-9.859 0,-3.332 0.185,-6.621 0.546,-9.857 0.368,-3.303 0.919,-6.552 1.642,-9.734 0.735,-3.234 1.648,-6.401 2.729,-9.489 1.093,-3.124 2.357,-6.168 3.781,-9.12 1.436,-2.976 3.034,-5.859 4.784,-8.637 1.758,-2.792 3.668,-5.479 5.719,-8.047 2.056,-2.575 4.254,-5.032 6.581,-7.36 2.327,-2.327 4.784,-4.524 7.359,-6.58 2.569,-2.052 5.255,-3.962 8.047,-5.72 2.778,-1.749 5.661,-3.348 8.637,-4.783 2.952,-1.425 5.996,-2.689 9.12,-3.782 3.088,-1.081 6.254,-1.994 9.488,-2.729 3.183,-0.723 6.431,-1.274 9.735,-1.643 3.237,-0.36 6.526,-0.545 9.859,-0.546 3.332,0 6.621,0.186 9.857,0.546 3.304,0.368 6.552,0.919 9.735,1.643 3.234,0.735 6.4,1.648 9.488,2.728 3.125,1.093 6.169,2.358 9.121,3.782 2.976,1.436 5.859,3.034 8.637,4.783 2.792,1.758 5.478,3.669 8.047,5.72 2.575,2.056 5.032,4.253 7.359,6.581 2.327,2.327 4.525,4.784 6.581,7.358 2.051,2.569 3.961,5.255 5.719,8.047 1.75,2.778 3.348,5.661 4.784,8.637 1.424,2.952 2.688,5.996 3.782,9.12 1.08,3.088 1.993,6.255 2.728,9.489 0.724,3.183 1.275,6.431 1.643,9.735 0.361,3.236 0.546,6.526 0.546,9.858"
       style="opacity:0.509804;fill:#decd87;stroke:#000000;stroke-width:0.94819;stroke-linecap:round;stroke-linejoin:bevel"
       id="path944" />
    <path
       inkscape:export-ydpi="99.18"
       inkscape:export-xdpi="99.18"
       inkscape:export-filename="D:\OneDrive\Quảcầu.com\Pictures\Illustration\Venn.png"
       style="fill:#000000;stroke-width:0.0629246"
       d="m 102.878,314.22028 c 0.42224,-1.07194 1.16026,-4.14754 2.1185,-8.82849 1.3424,-6.55761 2.07557,-9.83925 2.23355,-9.99721 0.48044,-0.48045 2.04988,4.82649 3.90555,13.20635 0.65962,2.97874 1.11202,4.53353 1.50595,5.17554 0.20895,0.34052 0.56781,0.23438 0.56781,-0.16795 0,-0.0709 -0.069,-0.36679 -0.15311,-0.65735 -0.18675,-0.64442 -0.67186,-2.79936 -1.1068,-4.91655 -0.62535,-3.04406 -1.54637,-6.80137 -2.83038,-11.54665 -1.69902,-6.27902 -1.95041,-8.0989 -1.83794,-13.30531 l 0.0448,-2.07329 1.06421,3.74079 c 1.43842,5.05621 2.11217,7.21973 2.8106,9.02525 0.19974,0.51635 0.33377,0.76135 0.53034,0.96939 0.33289,0.35232 0.43999,0.31219 0.38042,-0.1425 -0.0852,-0.65027 -0.47674,-2.1172 -2.18558,-8.18786 -1.19461,-4.24382 -1.73802,-6.29996 -1.91247,-7.2363 -0.14442,-0.77524 -0.14775,-1.5144 -0.008,-1.77576 0.23206,-0.43399 0.56712,-0.48496 2.12063,-0.3226 1.3538,0.14148 2.40934,0.13014 3.18095,-0.0341 2.80936,-0.59794 4.3923,-2.86436 5.14687,-7.3692 0.42275,-2.52387 0.37929,-4.16203 -0.15692,-5.91489 -0.71334,-2.33189 -2.40312,-4.17858 -4.65225,-5.08425 -2.25147,-0.90661 -5.19589,-0.96074 -7.6469,-0.14061 -2.47982,0.8298 -4.12682,2.50499 -4.9204,5.00461 -0.29211,0.92005 -0.44878,2.00503 -0.51404,3.55968 -0.0878,2.08927 -0.28759,3.00719 -0.786827,3.61326 -0.15659,0.1901 -0.28471,0.36708 -0.28471,0.39328 0,0.0779 0.16468,0.0555 0.656377,-0.0892 0.44431,-0.13072 0.47231,-0.13199 0.63072,-0.0281 0.27655,0.1812 0.31117,0.35984 0.30632,1.58076 -0.006,1.42614 -0.16654,2.27461 -0.61197,3.22751 -0.1591,0.34037 -0.28929,0.6675 -0.28929,0.72695 0,0.29928 0.52519,0.14731 0.87865,-0.25425 0.34914,-0.39663 0.52913,-0.80883 0.76645,-1.75515 l 0.20373,-0.81242 0.2829,0.84948 c 0.27305,0.81993 0.28303,0.87685 0.28687,1.63603 0.003,0.57714 -0.0276,0.90764 -0.11432,1.24135 -0.11022,0.42406 -0.11135,0.46544 -0.015,0.61251 0.12874,0.19652 0.32649,0.24828 0.78837,0.2064 0.66264,-0.0601 1.11418,-0.39742 1.20862,-0.90293 0.0305,-0.16363 0.0678,-0.30975 0.0828,-0.32471 0.0581,-0.0581 0.17082,0.0705 0.33566,0.38314 0.16206,0.30732 0.17147,0.37072 0.16524,1.11245 -0.0127,1.50314 -0.54153,3.9097 -2.34403,10.66569 -1.35285,5.07071 -1.58562,6.08227 -1.45552,6.32537 0.0921,0.1722 0.35053,0.16002 0.46991,-0.0222 0.3226,-0.49233 1.15187,-3.16917 1.98693,-6.41367 1.51553,-5.88835 2.08471,-7.86232 2.20502,-7.64732 0.12761,0.22807 0.20855,3.01924 0.21121,7.28587 0.004,6.95553 -0.0312,7.21876 -2.60058,19.22343 -1.00449,4.69332 -1.15144,5.45288 -1.1626,6.00928 l -0.01,0.47194 0.19583,0.0191 c 0.18341,0.0178 0.20418,-0.001 0.32728,-0.31462 z m 7.9125,-38.08914 c -2.09502,-0.24507 -3.92959,-0.86619 -5.40167,-1.8288 -1.33064,-0.87013 -1.7237,-1.27417 -1.90075,-1.95391 -0.12125,-0.46553 -0.12026,-0.76221 0.01,-3.18303 l 0.10754,-1.99547 0.16109,-0.0329 c 0.0886,-0.0182 1.10967,-0.19022 2.26906,-0.38239 2.41793,-0.40076 3.22763,-0.57163 4.37325,-0.92282 3.05658,-0.93703 5.46572,-2.38861 5.68058,-3.42272 0.0271,-0.13043 0.0808,-0.2476 0.11941,-0.26045 0.18272,-0.0609 0.90323,1.10917 1.14793,1.86419 0.88004,2.71532 0.095,7.84865 -1.5983,10.45166 -0.5641,0.86715 -1.07145,1.29534 -1.7935,1.5137 -0.85375,0.25819 -1.86085,0.30673 -3.1748,0.15302 z m -7.39736,-9.9776 c 0,-0.1422 0.36275,-0.42107 0.7244,-0.5569 0.72805,-0.27342 1.9306,-0.56686 3.88151,-0.94716 1.08333,-0.21118 2.59542,-0.51022 3.36019,-0.66455 0.76477,-0.15433 1.44436,-0.27942 1.51019,-0.27798 0.20077,0.004 -0.2715,0.37327 -0.89664,0.70032 -0.997,0.52161 -2.64783,0.96122 -5.15026,1.37147 -2.5001,0.40987 -3.42939,0.51144 -3.42939,0.3748 z m 2.49066,-2.17278 c -0.37426,-0.14362 0.49984,-0.47374 0.93391,-0.3527 0.23616,0.0658 0.35809,0.24399 0.22504,0.32879 -0.10386,0.0663 -1.00046,0.0848 -1.15895,0.0239 z m -3.62331,-0.89489 c 0,-0.22018 0.39622,-0.71035 1.27861,-1.58182 0.48835,-0.4823 0.89908,-0.86574 0.91271,-0.8521 0.0512,0.0512 -1.23171,1.76731 -1.60741,2.15014 -0.3954,0.40288 -0.58391,0.49449 -0.58391,0.28378 z m 2.76868,-0.34886 c 0,-0.25276 0.71861,-0.83617 1.95067,-1.5837 1.14714,-0.69601 2.61503,-1.33614 2.75134,-1.19983 0.0623,0.0623 -0.22082,0.328 -0.7008,0.65751 -0.76259,0.52354 -3.77918,2.27532 -3.91811,2.27532 -0.0457,0 -0.0831,-0.0671 -0.0831,-0.1493 z m 3.49641,-0.41546 c -0.38489,-0.14633 -0.11149,-0.35261 0.90831,-0.6854 1.64417,-0.53655 3.65545,-0.85957 3.75393,-0.6029 0.142,0.37001 -1.46161,1.06154 -2.96738,1.27964 -0.53033,0.0767 -1.50254,0.0818 -1.69486,0.008 z m 3.02146,-2.19563 c -0.4625,-0.10019 -0.0589,-0.38584 0.54512,-0.38584 0.38683,0 0.66575,0.14475 0.54931,0.28506 -0.11404,0.1375 -0.68299,0.18987 -1.09443,0.10076 z"
       id="path946" />
    <path
       inkscape:export-ydpi="99.18"
       inkscape:export-xdpi="99.18"
       inkscape:export-filename="D:\OneDrive\Quảcầu.com\Pictures\Illustration\Venn.png"
       id="path964"
       d="m 123.22566,202.4358 h 26.98591 v 5.02679 h -26.98591 z"
       style="fill:none;stroke:none;stroke-width:0.264583" />
    <path
       inkscape:export-ydpi="99.18"
       inkscape:export-xdpi="99.18"
       inkscape:export-filename="D:\OneDrive\Quảcầu.com\Pictures\Illustration\Venn.png"
       style="fill:#000000;stroke-width:0.251657"
       d="m 407.28998,314.33582 c 0.14561,-0.24528 0.57135,-2.46265 0.93013,-4.84439 0.15637,-1.03809 0.37917,-2.34042 0.49509,-2.89406 0.96867,-4.62621 1.30962,-6.40444 1.78532,-9.31131 0.15855,-0.96887 0.38029,-2.0447 0.49274,-2.39074 0.11245,-0.34602 0.28011,-1.19303 0.37258,-1.88224 0.15069,-1.12324 0.20293,-1.20549 0.50409,-0.79362 0.18479,0.25271 0.4083,1.21296 0.4967,2.1339 0.24161,2.51725 0.78306,6.05044 1.52927,9.9791 0.36807,1.93776 0.76245,4.08942 0.87642,4.78148 0.63214,3.83867 1.07255,5.2942 1.51855,5.01856 0.314,-0.19407 0.24285,-0.8174 -0.4579,-4.01194 -0.27327,-1.24569 -0.63201,-3.11424 -0.79723,-4.15233 -0.16521,-1.03809 -0.40236,-2.39704 -0.52699,-3.01989 -0.33041,-1.65123 -0.93511,-5.57494 -1.26047,-8.17884 -0.15566,-1.24571 -0.38714,-2.88776 -0.51439,-3.64903 -0.27351,-1.63609 -0.31293,-12.58284 -0.0453,-12.58284 0.35106,0 0.82945,1.46217 0.76952,2.35205 -0.0347,0.51481 0.10237,1.08611 0.32314,1.3471 0.43976,0.51988 0.61751,1.1071 1.8511,6.11547 0.49433,2.00696 1.02302,3.96045 1.17487,4.34108 0.3129,0.78431 0.71834,0.91909 0.71834,0.23879 0,-0.39619 -1.75296,-7.52213 -2.87852,-11.70146 -0.54251,-2.01441 -0.51533,-2.4131 0.1103,-1.61773 0.27682,0.35192 0.50331,0.746 0.50331,0.87573 0,0.12973 0.23497,0.44852 0.52215,0.70841 l 0.52216,0.47255 -0.14327,-1.62891 c -0.10359,-1.17782 -0.0788,-1.43281 0.0895,-0.92077 0.26389,0.80274 0.72639,1.43094 1.05351,1.43094 0.30467,0 0.27906,-0.94094 -0.0308,-1.13245 -0.13841,-0.0855 -0.25165,-0.48191 -0.25165,-0.8808 0,-0.3989 -0.11326,-0.79526 -0.25167,-0.8808 -0.13841,-0.0855 -0.25165,-0.49527 -0.25165,-0.91051 0,-1.07849 0.34563,-0.71855 0.75556,0.78687 0.20673,0.75918 0.55303,1.39999 0.83938,1.55324 0.44306,0.23712 0.47168,0.19536 0.31426,-0.45853 -0.30274,-1.25758 -0.46589,-3.32851 -0.29692,-3.76885 0.1492,-0.38879 0.19312,-0.38422 0.51315,0.0535 0.58855,0.80489 0.7445,0.18013 0.29921,-1.19864 -0.49049,-1.51872 -0.24792,-1.98767 0.57503,-1.11168 0.31741,0.33786 0.73482,0.55377 0.92758,0.4798 0.26989,-0.10356 0.20372,-0.30891 -0.28775,-0.893 -0.89818,-1.06741 -1.3882,-2.35969 -1.5051,-3.96928 -0.16926,-2.3302 -0.8524,-5.34207 -1.52541,-6.72534 -1.40257,-2.88272 -4.70211,-4.64119 -8.43343,-4.49455 -2.62024,0.10298 -4.63185,0.7754 -5.79282,1.93637 -0.85981,0.85981 -1.14641,1.34752 -1.9501,3.31852 -0.37866,0.92862 -0.35559,2.64034 0.0669,4.95838 0.75616,4.14944 1.95672,5.92319 4.88594,7.21862 1.062,0.46967 1.60566,0.56823 2.4423,0.44277 1.29511,-0.19421 1.36517,-0.0543 1.26754,2.5307 -0.0863,2.28305 -1.3804,6.3688 -2.09253,6.60618 -0.39425,0.13142 -4.59218,-5.54756 -4.59218,-6.21233 0,-0.12006 -0.40045,-0.45458 -0.88989,-0.74336 -0.78848,-0.4652 -0.90745,-0.47931 -1.04388,-0.12376 -0.10064,0.26227 0.15049,0.68023 0.72492,1.20648 0.4834,0.44285 1.20176,1.36502 1.59635,2.04924 1.39886,2.42565 3.74385,5.14475 4.43688,5.14475 0.52474,0 0.9566,-0.78911 1.61713,-2.95483 0.35523,-1.16471 0.59606,-1.57125 0.93176,-1.57285 0.28697,-9.5e-4 0.62386,-0.38447 0.92026,-1.04647 l 0.46755,-1.04432 -0.0602,5.13374 c -0.0331,2.82357 -0.1849,5.58673 -0.3373,6.14038 -0.72746,2.64285 -0.84427,3.10391 -1.08378,4.27816 -0.14116,0.69206 -0.35508,1.82451 -0.47537,2.51657 -0.30426,1.75034 -1.02426,5.56301 -1.30693,6.92056 -0.71296,3.42412 -1.71125,9.31195 -1.71741,10.12919 -0.005,0.64551 0.32581,0.93224 0.58044,0.50332 z m 6.54732,-39.13744 c 0.069,-0.17037 0.12114,0.03 0.116,0.4452 -0.005,0.41523 -0.0615,0.55463 -0.12533,0.30978 -0.0638,-0.24486 -0.0596,-0.5846 0.01,-0.75498 z m -8.82512,-2.25057 c -0.63241,-0.45509 -1.35933,-1.11054 -1.61539,-1.45658 -1.46909,-1.98523 -2.22052,-7.36943 -1.3475,-9.65537 0.64262,-1.68269 0.97183,-1.86032 1.59456,-0.8604 0.77671,1.2472 3.04277,3.35392 4.31876,4.01506 0.9616,0.49826 1.53111,0.59079 3.77485,0.61333 3.34905,0.0337 3.09929,-0.0131 4.0072,0.75079 0.9291,0.7818 0.9947,1.57917 0.24691,3.00124 -0.69263,1.31719 -2.61013,3.27268 -3.73032,3.80425 -1.10356,0.52367 -3.27519,0.84021 -4.88437,0.71195 -0.86989,-0.0693 -1.54139,-0.3318 -2.3647,-0.92427 z m 3.20799,-8.76255 c -1.12426,-0.58742 -3.157,-2.46132 -2.92338,-2.69493 0.0971,-0.0971 0.26336,-0.0362 0.3694,0.13532 0.24803,0.40133 5.15873,2.56755 5.82047,2.56755 0.55749,0 0.67842,0.38491 0.18788,0.59803 -0.53201,0.23114 -2.51956,-0.11753 -3.45437,-0.60597 z m 4.64974,-1.13822 c -0.41523,-0.30474 -1.60431,-1.01575 -2.64239,-1.58003 -1.03809,-0.56429 -2.11392,-1.19735 -2.39075,-1.4068 -0.49245,-0.37262 -0.48966,-0.38101 0.12939,-0.38884 1.46872,-0.0186 4.0037,1.24391 5.72164,2.84952 1.47097,1.37479 0.86747,1.76302 -0.81789,0.52615 z m -4.55271,-0.8968 c -0.89482,-0.43156 -1.74102,-0.99778 -1.88042,-1.25827 -0.13941,-0.2605 -0.18702,-0.47363 -0.10578,-0.47363 0.23501,0 3.4907,1.71795 4.03343,2.12835 0.90943,0.68769 -0.27489,0.45834 -2.04723,-0.39645 z m -3.83333,-1.56401 c -0.11776,-0.6072 0.37467,-0.51697 0.53553,0.0981 0.0861,0.32931 0.0281,0.48197 -0.15939,0.41954 -0.16213,-0.0539 -0.33139,-0.28693 -0.37614,-0.51768 z m 2.22045,-1.79481 c 0,-0.39228 0.99866,-0.51857 1.88742,-0.2387 l 1.00664,0.317 -1.44703,0.0193 c -0.79586,0.0106 -1.44703,-0.0333 -1.44703,-0.0976 z m 4.21525,-0.553 c 0.17302,-0.0698 0.45613,-0.0698 0.62915,0 0.17301,0.0698 0.0315,0.12693 -0.31457,0.12693 -0.34603,0 -0.48759,-0.0571 -0.31458,-0.12693 z"
       id="path1216"
       inkscape:connector-curvature="0" />
  </g>
  <g
     id="layer2"
     inkscape:label="Text "
     transform="translate(19.470833,17.883338)"
     inkscape:groupmode="layer">
    <text
       xml:space="preserve"
       id="text1668"
       style="font-style:normal;font-variant:normal;font-weight:normal;font-stretch:normal;font-size:1.76389px;line-height:1.25;font-family:'000 BlambotClassic iCiel';-inkscape-font-specification:'000 BlambotClassic iCiel';letter-spacing:0px;word-spacing:0px;white-space:pre;shape-inside:url(#rect1670);fill:#000000;fill-opacity:1;stroke:none"
       transform="matrix(4,0,0,4,-565.94093,-811.2784)"><tspan
         x="152.4082"
         y="228.20044"
         id="tspan25083"><tspan
           style="shape-inside:url(#rect1670)"
           id="tspan25081">(Megan) </tspan></tspan></text>
    <text
       inkscape:export-ydpi="99.18"
       inkscape:export-xdpi="99.18"
       inkscape:export-filename="D:\OneDrive\Quảcầu.com\Pictures\Illustration\Venn.png"
       transform="scale(0.88374213,1.1315518)"
       id="text1303"
       y="122.86991"
       x="244.03091"
       style="font-style:normal;font-variant:normal;font-weight:normal;font-stretch:normal;font-size:7.48235px;line-height:1.25;font-family:'000 BlambotClassic iCiel';-inkscape-font-specification:'000 BlambotClassic iCiel';letter-spacing:0px;word-spacing:0px;fill:#000000;fill-opacity:1;stroke:none;stroke-width:0.233823"
       xml:space="preserve"><tspan
         id="tspan1301"
         style="font-style:normal;font-variant:normal;font-weight:normal;font-stretch:normal;font-size:7.48235px;font-family:'000 BlambotClassic iCiel';-inkscape-font-specification:'000 BlambotClassic iCiel';text-align:center;text-anchor:middle;stroke-width:0.233823"
         y="122.86991"
         x="244.03091"
         sodipodi:role="line">Người có</tspan><tspan
         id="tspan1307"
         style="font-style:normal;font-variant:normal;font-weight:normal;font-stretch:normal;font-size:7.48235px;font-family:'000 BlambotClassic iCiel';-inkscape-font-specification:'000 BlambotClassic iCiel';text-align:center;text-anchor:middle;stroke-width:0.233823"
         y="132.22285"
         x="244.03091"
         sodipodi:role="line">tiếng nói lớn</tspan><tspan
         id="tspan1317"
         style="font-style:normal;font-variant:normal;font-weight:normal;font-stretch:normal;font-size:7.48235px;font-family:'000 BlambotClassic iCiel';-inkscape-font-specification:'000 BlambotClassic iCiel';text-align:center;text-anchor:middle;stroke-width:0.233823"
         y="141.57579"
         x="244.03091"
         sodipodi:role="line">nhất tới Megan</tspan></text>
    <text
       inkscape:export-ydpi="99.18"
       inkscape:export-xdpi="99.18"
       inkscape:export-filename="D:\OneDrive\Quảcầu.com\Pictures\Illustration\Venn.png"
       xml:space="preserve"
       style="font-style:normal;font-variant:normal;font-weight:normal;font-stretch:normal;font-size:7.48235px;line-height:1.25;font-family:'000 BlambotClassic iCiel';-inkscape-font-specification:'000 BlambotClassic iCiel';letter-spacing:0px;word-spacing:0px;fill:#000000;fill-opacity:1;stroke:none;stroke-width:0.233823"
       x="126.07133"
       y="127.55386"
       id="text1290"
       transform="scale(0.88374213,1.1315518)"><tspan
         sodipodi:role="line"
         x="126.07133"
         y="127.55386"
         style="font-style:normal;font-variant:normal;font-weight:normal;font-stretch:normal;font-size:7.48235px;font-family:'000 BlambotClassic iCiel';-inkscape-font-specification:'000 BlambotClassic iCiel';text-align:center;text-anchor:middle;stroke-width:0.233823"
         id="tspan1284">người có </tspan><tspan
         sodipodi:role="line"
         x="126.07133"
         y="136.9068"
         style="font-style:normal;font-variant:normal;font-weight:normal;font-stretch:normal;font-size:7.48235px;font-family:'000 BlambotClassic iCiel';-inkscape-font-specification:'000 BlambotClassic iCiel';text-align:center;text-anchor:middle;stroke-width:0.233823"
         id="tspan1288">niềm tin</tspan><tspan
         sodipodi:role="line"
         x="126.07133"
         y="146.25974"
         style="font-style:normal;font-variant:normal;font-weight:normal;font-stretch:normal;font-size:7.48235px;font-family:'000 BlambotClassic iCiel';-inkscape-font-specification:'000 BlambotClassic iCiel';text-align:center;text-anchor:middle;stroke-width:0.233823"
         id="tspan3975">gây hại</tspan></text>
    <text
       inkscape:export-ydpi="99.18"
       inkscape:export-xdpi="99.18"
       inkscape:export-filename="D:\OneDrive\Quảcầu.com\Pictures\Illustration\Venn.png"
       xml:space="preserve"
       style="font-style:normal;font-variant:normal;font-weight:normal;font-stretch:normal;font-size:7.48235px;line-height:1.25;font-family:'000 BlambotClassic iCiel';-inkscape-font-specification:'000 BlambotClassic iCiel';letter-spacing:0px;word-spacing:0px;fill:#000000;fill-opacity:1;stroke:none;stroke-width:0.233823"
       x="182.22212"
       y="108.37312"
       id="text1275"
       transform="scale(0.88374213,1.1315518)"><tspan
         sodipodi:role="line"
         x="182.22212"
         y="108.37312"
         style="font-style:normal;font-variant:normal;font-weight:bold;font-stretch:normal;font-size:7.48235px;font-family:'000 BlambotClassic iCiel';-inkscape-font-specification:'000 BlambotClassic iCiel';text-align:center;text-anchor:middle;stroke-width:0.233823"
         id="tspan1269">Người lan tỏa</tspan><tspan
         sodipodi:role="line"
         x="182.22212"
         y="117.72606"
         style="font-style:normal;font-variant:normal;font-weight:bold;font-stretch:normal;font-size:7.48235px;font-family:'000 BlambotClassic iCiel';-inkscape-font-specification:'000 BlambotClassic iCiel';text-align:center;text-anchor:middle;stroke-width:0.233823"
         id="tspan1273">niềm tin</tspan><tspan
         sodipodi:role="line"
         x="182.22212"
         y="127.07899"
         style="font-style:normal;font-variant:normal;font-weight:bold;font-stretch:normal;font-size:7.48235px;font-family:'000 BlambotClassic iCiel';-inkscape-font-specification:'000 BlambotClassic iCiel';text-align:center;text-anchor:middle;stroke-width:0.233823"
         id="tspan4617">gây hại</tspan></text>
    <text
       inkscape:export-ydpi="99.18"
       inkscape:export-xdpi="99.18"
       inkscape:export-filename="D:\OneDrive\Quảcầu.com\Pictures\Illustration\Venn.png"
       id="text1257"
       y="197.07365"
       x="161.18048"
       style="font-style:normal;font-variant:normal;font-weight:normal;font-stretch:normal;font-size:12.7px;line-height:1.25;font-family:'000 BlambotClassic iCiel';-inkscape-font-specification:'000 BlambotClassic iCiel';text-align:center;letter-spacing:0px;word-spacing:0px;text-anchor:middle;fill:#000000;fill-opacity:1;stroke:none;stroke-width:0.264583"
       xml:space="preserve"><tspan
         id="tspan1255"
         style="font-style:normal;font-variant:normal;font-weight:normal;font-stretch:normal;font-family:'000 BlambotClassic iCiel';-inkscape-font-specification:'000 BlambotClassic iCiel';text-align:center;text-anchor:middle;stroke-width:0.264583"
         y="197.07365"
         x="161.18048"
         sodipodi:role="line">Người làm trong</tspan><tspan
         id="tspan1261"
         style="font-style:normal;font-variant:normal;font-weight:normal;font-stretch:normal;font-family:'000 BlambotClassic iCiel';-inkscape-font-specification:'000 BlambotClassic iCiel';text-align:center;text-anchor:middle;stroke-width:0.264583"
         y="212.94865"
         x="161.18048"
         sodipodi:role="line">lĩnh vực nơi niềm tin</tspan><tspan
         id="tspan1267"
         style="font-style:normal;font-variant:normal;font-weight:normal;font-stretch:normal;font-family:'000 BlambotClassic iCiel';-inkscape-font-specification:'000 BlambotClassic iCiel';text-align:center;text-anchor:middle;stroke-width:0.264583"
         y="228.82365"
         x="161.18048"
         sodipodi:role="line">gây hại xuất hiện</tspan></text>
    <text
       inkscape:export-ydpi="99.18"
       inkscape:export-xdpi="99.18"
       inkscape:export-filename="D:\OneDrive\Quảcầu.com\Pictures\Illustration\Venn.png"
       transform="scale(0.88374213,1.1315518)"
       id="text1234"
       y="49.449085"
       x="182.34933"
       style="font-style:normal;font-variant:normal;font-weight:normal;font-stretch:normal;font-size:7.48235px;line-height:1.25;font-family:'000 BlambotClassic iCiel';-inkscape-font-specification:'000 BlambotClassic iCiel';letter-spacing:0px;word-spacing:0px;fill:#000000;fill-opacity:1;stroke:none;stroke-width:0.233823"
       xml:space="preserve"><tspan
         id="tspan1230"
         style="font-style:normal;font-variant:normal;font-weight:normal;font-stretch:normal;font-size:7.48235px;font-family:'000 BlambotClassic iCiel';-inkscape-font-specification:'000 BlambotClassic iCiel';text-align:center;text-anchor:middle;stroke-width:0.233823"
         y="49.449085"
         x="182.34933"
         sodipodi:role="line">Người chấp nhận</tspan><tspan
         id="tspan1236"
         style="font-style:normal;font-variant:normal;font-weight:normal;font-stretch:normal;font-size:7.48235px;font-family:'000 BlambotClassic iCiel';-inkscape-font-specification:'000 BlambotClassic iCiel';text-align:center;text-anchor:middle;stroke-width:0.233823"
         y="58.802021"
         x="182.34933"
         sodipodi:role="line">hiện trạng của </tspan><tspan
         id="tspan1232"
         style="font-style:normal;font-variant:normal;font-weight:normal;font-stretch:normal;font-size:7.48235px;font-family:'000 BlambotClassic iCiel';-inkscape-font-specification:'000 BlambotClassic iCiel';text-align:center;text-anchor:middle;stroke-width:0.233823"
         y="68.154961"
         x="182.34933"
         sodipodi:role="line">bạn mình</tspan></text>
    <text
       inkscape:export-ydpi="99.18"
       inkscape:export-xdpi="99.18"
       inkscape:export-filename="D:\OneDrive\Quảcầu.com\Pictures\Illustration\Venn.png"
       id="text1222"
       y="58.60004"
       x="206.91978"
       style="font-style:normal;font-variant:normal;font-weight:normal;font-stretch:normal;font-size:12.7px;line-height:1.25;font-family:'000 BlambotClassic iCiel';-inkscape-font-specification:'000 BlambotClassic iCiel';letter-spacing:0px;word-spacing:0px;fill:#000000;fill-opacity:1;stroke:none;stroke-width:0.264583"
       xml:space="preserve"><tspan
         id="tspan1218"
         style="font-style:normal;font-variant:normal;font-weight:normal;font-stretch:normal;font-family:'000 BlambotClassic iCiel';-inkscape-font-specification:'000 BlambotClassic iCiel';stroke-width:0.264583"
         y="58.60004"
         x="206.91978"
         sodipodi:role="line">Bạn bè</tspan><tspan
         style="font-style:normal;font-variant:normal;font-weight:normal;font-stretch:normal;font-family:'000 BlambotClassic iCiel';-inkscape-font-specification:'000 BlambotClassic iCiel';stroke-width:0.264583"
         y="74.475037"
         x="206.91978"
         sodipodi:role="line"
         id="tspan11671">của Megan</tspan></text>
    <text
       inkscape:export-ydpi="99.18"
       inkscape:export-xdpi="99.18"
       inkscape:export-filename="D:\OneDrive\Quảcầu.com\Pictures\Illustration\Venn.png"
       xml:space="preserve"
       style="font-style:normal;font-variant:normal;font-weight:normal;font-stretch:normal;font-size:12.7px;line-height:1.25;font-family:'000 BlambotClassic iCiel';-inkscape-font-specification:'000 BlambotClassic iCiel';letter-spacing:0px;word-spacing:0px;fill:#000000;fill-opacity:1;stroke:none;stroke-width:0.264583"
       x="43.407158"
       y="59.272968"
       id="text950"><tspan
         sodipodi:role="line"
         x="43.407158"
         y="59.272968"
         style="font-style:normal;font-variant:normal;font-weight:normal;font-stretch:normal;font-family:'000 BlambotClassic iCiel';-inkscape-font-specification:'000 BlambotClassic iCiel';stroke-width:0.264583"
         id="tspan952">Người có</tspan><tspan
         sodipodi:role="line"
         x="43.407158"
         y="75.147964"
         style="font-style:normal;font-variant:normal;font-weight:normal;font-stretch:normal;font-family:'000 BlambotClassic iCiel';-inkscape-font-specification:'000 BlambotClassic iCiel';stroke-width:0.264583"
         id="tspan12899">bất lực</tspan><tspan
         sodipodi:role="line"
         x="43.407158"
         y="91.022964"
         style="font-style:normal;font-variant:normal;font-weight:normal;font-stretch:normal;font-family:'000 BlambotClassic iCiel';-inkscape-font-specification:'000 BlambotClassic iCiel';stroke-width:0.264583"
         id="tspan15023">Học được</tspan></text>
    <text
       xml:space="preserve"
       style="font-style:normal;font-variant:normal;font-weight:normal;font-stretch:normal;font-size:7.7611px;line-height:0.3;font-family:'000 BlambotClassic iCiel';-inkscape-font-specification:'000 BlambotClassic iCiel';text-align:center;text-anchor:middle;fill:#caffbf;fill-opacity:0.996078;stroke-width:1.05833;stroke-miterlimit:10"
       x="352.91196"
       y="171.0135"
       id="text871"><tspan
         sodipodi:role="line"
         id="tspan869"
         x="352.91196"
         y="171.0135"
         style="stroke-width:1.05833" /></text>
    <text
       xml:space="preserve"
       id="text16677"
       style="font-style:normal;font-variant:normal;font-weight:normal;font-stretch:normal;font-size:1.76389px;line-height:1.25;font-family:'000 BlambotClassic iCiel';-inkscape-font-specification:'000 BlambotClassic iCiel';letter-spacing:0px;word-spacing:0px;white-space:pre;shape-inside:url(#rect16679);fill:#000000;fill-opacity:1;stroke:none"
       transform="matrix(4,0,0,4,-402.69318,-827.61475)"><tspan
         x="152.4082"
         y="228.20044"
         id="tspan25087"><tspan
           style="shape-inside:url(#rect1670)"
           id="tspan25085">(Danish) </tspan></tspan></text>
    <text
       xml:space="preserve"
       id="text17681"
       style="font-style:normal;font-variant:normal;font-weight:normal;font-stretch:normal;font-size:1.76389px;line-height:1.25;font-family:'000 BlambotClassic iCiel';-inkscape-font-specification:'000 BlambotClassic iCiel';letter-spacing:0px;word-spacing:0px;white-space:pre;shape-inside:url(#rect17683);fill:#000000;fill-opacity:1;stroke:none"
       transform="matrix(4,0,0,4,-464.39885,-671.62365)"><tspan
         x="152.4082"
         y="228.20044"
         id="tspan25091"><tspan
           style="shape-inside:url(#rect1670)"
           id="tspan25089">(Beret)</tspan></tspan></text>
  </g>
</svg>
