<svg width="1280" height="720" xmlns="http://www.w3.org/2000/svg" xmlns:xlink="http://www.w3.org/1999/xlink" overflow="hidden"><defs><clipPath id="clip0"><rect x="0" y="0" width="1280" height="720"/></clipPath></defs><g clip-path="url(#clip0)"><rect x="0" y="0" width="1280" height="720" fill="#FFFFFF"/><text font-family="SVN-Avo,SVN-Avo_MSFontService,sans-serif" font-weight="400" font-size="59" transform="translate(97.6 319)">Các<tspan font-size="59" x="141.833" y="0">sản</tspan><tspan font-size="59" x="0" y="63">phẩm của </tspan><tspan font-size="59" x="0" y="127">Quả </tspan>Cầu</text><path d="M853 627.95 748.955 627.95C743.671 627.9 739.068 624.365 737.672 619.279 736.359 614.46 738.237 609.324 742.374 606.506 769.063 581.543 748.739 537.003 712.346 540.722 677.132 544.34 665.716 589.947 695.113 609.641 698.869 611.892 700.713 616.344 699.633 620.58 698.57 624.715 694.98 627.716 690.709 628L584.072 627.633 583.042 523.93C582.244 518.61 578.056 514.408 572.722 513.625 568.817 513.041 564.895 514.425 562.219 517.31 539.569 545.458 494.053 528.799 495.017 492.697 495.947 457.462 540.699 442.938 562.219 470.886 565.759 475.338 572.057 476.456 576.926 473.537 580.051 471.653 582.028 468.301 582.144 464.649L583.524 357.178 681.885 357.378C686.738 357.728 691.258 354.926 693.086 350.407 694.498 346.872 693.966 342.837 691.673 339.785 664.586 317.974 677.814 274.352 712.462 271.183 749.321 267.815 770.11 312.371 743.82 338.368 740.38 340.936 738.918 345.388 740.148 349.49 741.494 354.009 745.731 357.044 750.434 356.877L852.585 356.877 852.568 467.601C851.687 471.586 848.463 474.655 844.425 475.355 840.57 476.022 836.681 474.404 834.454 471.203 813.948 442.171 768.282 454.861 765.756 490.296 763.13 527.365 809.611 546.075 833.474 517.56 835.501 514.592 838.925 512.891 842.531 513.091 847.599 513.358 851.77 517.193 852.468 522.212L853 627.95Z" fill="#FDB616" fill-rule="evenodd"/><path d="M852.183 91.6865 953.283 91.6865C956.115 91.4353 958.813 92.1051 961.095 93.4614 963.293 94.7674 965.159 96.76 965.975 99.3888 966.858 102.286 966.175 105.45 964.143 107.711 950.019 119.482 946.621 136.846 951.385 151.698 955.632 164.942 966.591 176.362 982.897 177.835 1001.72 179.543 1015.48 168.04 1021.21 153.607 1027.27 138.369 1024.49 119.683 1008.85 107.342 1006.75 104.948 1005.97 101.683 1006.73 98.5851 1007.83 94.2149 1011.71 91.1005 1016.21 91L1120.91 91.0502 1120.91 192.42C1120.72 194.931 1121.26 197.393 1122.34 199.536 1123.27 201.378 1124.65 203.052 1126.54 204.124 1130.63 206.418 1135.78 205.246 1138.48 201.411 1159.6 170.552 1207.8 184.684 1208.98 222.073 1210.15 258.626 1164.51 275.99 1141.14 247.893 1139.28 245.75 1136.58 244.594 1133.8 244.678 1131.68 244.745 1129.65 245.532 1127.85 246.771 1123.71 249.634 1121.39 254.49 1121.76 259.53L1121.76 359.342 1010.8 359.409C1007.06 359.359 1003.9 362.155 1003.48 365.873 1003.1 369.322 1005.23 372.537 1008.55 373.541 1044.61 396.665 1027.02 452.674 984.23 450.95 943.073 449.292 929.266 395.041 964.609 373.843 968.174 373.106 970.655 369.824 970.356 366.174 970.039 362.021 966.358 358.957 962.211 359.409L851.35 359.342 851 261.489C851.117 255.562 854.631 250.204 860.044 247.759 864.608 245.7 869.888 246.018 874.152 248.63 896.604 274.583 939.159 258.71 939.176 224.384 939.193 193.324 902.6 176.797 879.365 197.359 877.549 200.574 874.851 203.086 871.703 204.71 869.088 206.066 866.107 206.803 863.059 206.401 855.464 205.38 850.384 197.995 852.133 190.511L852.183 91.6865Z" fill="#2EA7E2" fill-rule="evenodd"/><path d="M851.95 91.9192 748.072 91.539C741.408 92.1838 735.36 87.6208 734.144 81.0409 733.394 76.8913 734.81 72.6425 737.926 69.7824 765.699 49.8608 753.07 6.13268 718.949 4.06613 682.93 1.90039 665.503 47.3479 693.742 69.7824 697.557 73.9485 698.257 80.0986 695.475 85.0087 692.909 89.522 687.911 92.068 682.746 91.4729L584 91.6217 584.183 191.676C583.65 194.552 584.267 197.429 585.749 199.76 587.182 201.992 589.398 203.711 592.097 204.554 595.079 205.48 598.161 205.166 600.96 204.24 604.042 203.215 606.891 201.413 609.191 198.867 634.531 174.978 675.932 195.495 672.25 230.113 668.668 263.757 625.634 275.544 605.409 248.398 602.26 243.885 596.362 242.215 591.314 244.397 586.966 246.266 584.233 250.647 584.466 255.375L584.3 358.537 681.414 358.917C687.361 358.851 692.459 354.619 693.609 348.783 694.459 344.551 692.976 340.186 689.744 337.326 665.053 313.139 683.08 271.263 717.617 272.536 750.887 273.759 766.115 314.528 741.791 337.243 738.276 340.385 736.926 345.295 738.342 349.791 739.858 354.586 744.173 357.942 749.188 358.223L851.916 359 851.916 261.74C851.5 256.598 854.032 251.655 858.431 248.96 863.395 245.952 869.71 246.365 874.241 249.985 898.765 276.966 943.515 256.995 939.783 220.74 936.385 187.807 894.517 175.871 874.241 202.058 871.292 205.083 867.044 206.456 862.879 205.712 856.115 204.538 851.333 198.437 851.783 191.593L851.95 91.9192Z" fill="#7EBB41" fill-rule="evenodd"/><path d="M1122 359.418 1122 464.469C1121.77 469.289 1118.43 473.392 1113.75 474.576 1109.44 475.677 1104.91 474.042 1102.3 470.457 1078.45 442.839 1033.15 461.151 1035.2 497.591 1037.17 532.497 1081.42 546.189 1102.76 518.505 1104.89 516.12 1108.1 515.002 1111.26 515.536 1114.41 516.07 1116.94 518.004 1118.64 520.423 1120.38 522.907 1121.31 525.976 1121.04 529.228L1121.04 628.209 1015.98 628.209C1011.88 628.493 1008.25 630.945 1006.46 634.647 1004.2 639.317 1005.29 644.92 1009.14 648.423 1038.26 671.171 1020.79 717.885 983.898 715.95 948.69 714.099 935.5 668.903 964.211 648.423 967.732 645.621 969.269 641.001 968.129 636.648 966.856 631.879 962.674 628.46 957.748 628.176L851.944 627.993 851.944 524.492C851.878 519.889 848.804 515.886 844.39 514.602 840.671 513.535 836.671 514.635 834.026 517.471 811.431 546.389 765.033 530.429 765 493.722 764.967 456.965 811.447 440.954 834.059 469.923 835.96 473.492 840.126 475.243 843.994 474.076 846.721 473.242 848.704 471.274 850.076 469.039 851.746 466.304 852.589 463.018 852.242 459.566L852.242 358.033 962.376 358.033C966.856 357.65 970.839 360.835 971.451 365.288 971.881 368.407 970.459 371.475 967.831 373.177 950.492 382.599 944.194 400.177 946.971 416.255 949.798 432.565 962.013 447.325 981.964 449.51 1026.21 454.329 1045.24 394.841 1006.41 373.06 1003.04 371.525 1001.39 367.69 1002.56 364.171 1003.85 360.302 1008.05 358.233 1011.9 359.551L1122 359.418Z" fill="#EC5622" fill-rule="evenodd"/><text fill="#FFFFFF" font-family="SVN-Avo,SVN-Avo_MSFontService,sans-serif" font-weight="700" font-size="27" transform="translate(596.869 391)">Chuỗi<tspan font-size="27" x="83.6666" y="0">sự</tspan><tspan font-size="27" x="0" y="32">kiện</tspan><tspan font-size="27" x="62.3333" y="32">thảo</tspan><tspan font-size="27" x="0" y="64">luận</tspan><tspan font-size="27" x="63.5" y="64">về</tspan><tspan font-size="27" x="103" y="64">các</tspan><tspan font-size="27" x="0" y="96">chủ</tspan><tspan font-size="27" x="56.5" y="96">đề</tspan><tspan font-size="27" x="98.6666" y="96">liên</tspan><tspan font-size="27" x="0" y="128">quan</tspan><tspan font-size="27" x="268.22" y="91">Các</tspan><tspan font-size="27" x="331.22" y="91">bài </tspan><tspan font-size="27" x="268.22" y="123">phân</tspan><tspan font-size="27" x="343.054" y="123">tích</tspan><tspan font-size="27" x="268.22" y="155">sâu</tspan><tspan font-size="27" x="321.054" y="155">các</tspan><tspan font-size="27" x="268.22" y="187">chủ</tspan><tspan font-size="27" x="324.72" y="187">đề</tspan><tspan font-size="27" x="268.22" y="219">liên</tspan><tspan font-size="27" x="321.387" y="219">quan</tspan><tspan font-size="27" x="115.946" y="-261">Mạng lưới </tspan><tspan font-size="27" x="98.7789" y="-229">người</tspan> thân<tspan font-size="27" x="236.946" y="-229">, </tspan><tspan font-size="27" x="92.7789" y="-197">bạn</tspan><tspan font-size="27" x="144.112" y="-197"> </tspan>bè<tspan font-size="27" x="186.279" y="-197"> </tspan>của <tspan font-size="27" x="129.946" y="-165">người</tspan> có <tspan font-size="27" x="87.4456" y="-133">niềm tin </tspan><tspan font-size="27" x="197.112" y="-133">tiêu</tspan><tspan font-size="27" x="244.446" y="-133"> </tspan><tspan font-size="27" x="194.446" y="-101">cực</tspan><tspan font-size="27" x="385.238" y="-146">Mạng lưới </tspan><tspan font-size="27" x="403.905" y="-114">các</tspan><tspan font-size="27" x="463.071" y="-114">câu</tspan><tspan font-size="27" x="421.238" y="-82">hỏi </tspan><tspan font-size="27" x="468.071" y="-82">liên</tspan><tspan font-size="27" x="430.405" y="-50">ngành</tspan></text></g></svg>